<svg width="1256" height="609" viewBox="0 0 1256 609" fill="none" xmlns="http://www.w3.org/2000/svg">
<rect width="1256" height="609" rx="64" fill="#E2F24B"/>
<g clip-path="url(#clip0_613_16)">
<mask id="mask0_613_16" style="mask-type:luminance" maskUnits="userSpaceOnUse" x="936" y="120" width="200" height="200">
<path d="M1136 120H936V320H1136V120Z" fill="white"/>
</mask>
<g mask="url(#mask0_613_16)">
<path d="M1036 320C1033.1 225.262 1030.74 222.91 936 220C1030.74 217.105 1033.09 214.738 1036 120C1038.89 214.738 1041.26 217.09 1136 220C1041.26 222.91 1038.91 225.233 1036 320Z" fill="black"/>
</g>
</g>
<path d="M372.5 183.386C373.471 183.392 374.433 183.206 375.331 182.839C376.23 182.472 377.047 181.931 377.736 181.248L455.247 103.736C455.935 103.049 456.481 102.232 456.853 101.334C457.225 100.435 457.416 99.4725 457.416 98.5C457.416 97.5276 457.225 96.5646 456.853 95.6662C456.481 94.7678 455.935 93.9514 455.247 93.2638C454.56 92.5762 453.743 92.0307 452.845 91.6585C451.947 91.2864 450.984 91.0949 450.011 91.0949C448.047 91.0949 446.164 91.875 444.775 93.2638L367.264 170.775C366.572 171.461 366.024 172.276 365.649 173.175C365.275 174.074 365.082 175.038 365.082 176.011C365.082 176.985 365.275 177.949 365.649 178.848C366.024 179.746 366.572 180.562 367.264 181.248C367.953 181.931 368.77 182.472 369.669 182.839C370.567 183.206 371.529 183.392 372.5 183.386ZM372.5 267.314C373.471 267.319 374.433 267.133 375.331 266.766C376.23 266.399 377.047 265.859 377.736 265.175L539.175 103.736C539.863 103.049 540.408 102.232 540.78 101.334C541.152 100.435 541.344 99.4725 541.344 98.5C541.344 97.5276 541.152 96.5646 540.78 95.6662C540.408 94.7678 539.863 93.9514 539.175 93.2638C538.487 92.5762 537.671 92.0307 536.773 91.6585C535.874 91.2864 534.911 91.0949 533.939 91.0949C532.966 91.0949 532.003 91.2864 531.105 91.6585C530.206 92.0307 529.39 92.5762 528.702 93.2638L367.264 254.703C366.572 255.388 366.024 256.204 365.649 257.103C365.275 258.001 365.082 258.965 365.082 259.939C365.082 260.912 365.275 261.876 365.649 262.775C366.024 263.674 366.572 264.489 367.264 265.175C367.953 265.859 368.77 266.399 369.669 266.766C370.567 267.133 371.529 267.319 372.5 267.314ZM372.5 351.094C374.419 351.185 376.298 350.523 377.736 349.25L623.25 103.736C624.639 102.348 625.419 100.464 625.419 98.5C625.419 96.5361 624.639 94.6525 623.25 93.2638C621.861 91.875 619.978 91.0949 618.014 91.0949C616.05 91.0949 614.166 91.875 612.777 93.2638L367.264 338.483C366.572 339.168 366.024 339.984 365.649 340.883C365.275 341.781 365.082 342.745 365.082 343.719C365.082 344.692 365.275 345.656 365.649 346.555C366.024 347.454 366.572 348.269 367.264 348.955C367.953 349.639 368.77 350.179 369.669 350.546C370.567 350.913 371.529 351.099 372.5 351.094ZM372.5 435.021C373.471 435.027 374.433 434.841 375.331 434.474C376.23 434.107 377.047 433.566 377.736 432.883L706.882 103.736C707.57 103.049 708.116 102.232 708.488 101.334C708.86 100.435 709.051 99.4725 709.051 98.5C709.051 97.5276 708.86 96.5646 708.488 95.6662C708.116 94.7678 707.57 93.9514 706.882 93.2638C706.195 92.5762 705.378 92.0307 704.48 91.6585C703.582 91.2864 702.619 91.0949 701.646 91.0949C700.674 91.0949 699.711 91.2864 698.812 91.6585C697.914 92.0307 697.098 92.5762 696.41 93.2638L367.264 422.41C366.572 423.096 366.024 423.911 365.649 424.81C365.275 425.709 365.082 426.673 365.082 427.646C365.082 428.62 365.275 429.584 365.649 430.483C366.024 431.381 366.572 432.197 367.264 432.883C367.953 433.566 368.77 434.107 369.669 434.474C370.567 434.841 371.529 435.027 372.5 435.021ZM790.736 93.2638C790.051 92.5725 789.235 92.0239 788.336 91.6495C787.437 91.275 786.474 91.0823 785.5 91.0823C784.526 91.0823 783.562 91.275 782.664 91.6495C781.765 92.0239 780.949 92.5725 780.264 93.2638L367.264 506.264C366.572 506.949 366.024 507.765 365.649 508.664C365.275 509.562 365.082 510.526 365.082 511.5C365.082 512.474 365.275 513.438 365.649 514.336C366.024 515.235 366.572 516.051 367.264 516.736C367.949 517.428 368.765 517.976 369.664 518.351C370.562 518.725 371.526 518.918 372.5 518.918C373.474 518.918 374.438 518.725 375.336 518.351C376.235 517.976 377.051 517.428 377.736 516.736L790.736 103.736C791.427 103.051 791.976 102.235 792.351 101.336C792.725 100.438 792.918 99.4736 792.918 98.5C792.918 97.5265 792.725 96.5625 792.351 95.6638C791.976 94.7651 791.427 93.9494 790.736 93.2638ZM780.264 177.118L451.117 506.264C450.426 506.949 449.878 507.765 449.503 508.664C449.129 509.562 448.936 510.526 448.936 511.5C448.936 512.474 449.129 513.438 449.503 514.336C449.878 515.235 450.426 516.051 451.117 516.736C451.803 517.428 452.619 517.976 453.517 518.351C454.416 518.725 455.38 518.918 456.354 518.918C457.327 518.918 458.291 518.725 459.19 518.351C460.089 517.976 460.904 517.428 461.59 516.736L790.736 187.59C792.125 186.201 792.905 184.318 792.905 182.354C792.905 180.39 792.125 178.506 790.736 177.118C789.347 175.729 787.464 174.949 785.5 174.949C783.536 174.949 781.652 175.729 780.264 177.118ZM780.264 260.75L534.75 506.264C534.059 506.949 533.51 507.765 533.136 508.664C532.761 509.562 532.568 510.526 532.568 511.5C532.568 512.474 532.761 513.438 533.136 514.336C533.51 515.235 534.059 516.051 534.75 516.736C535.436 517.428 536.251 517.976 537.15 518.351C538.049 518.725 539.013 518.918 539.986 518.918C540.96 518.918 541.924 518.725 542.822 518.351C543.721 517.976 544.537 517.428 545.222 516.736L790.736 271.518C792.164 270.129 792.982 268.23 793.009 266.238C793.037 264.246 792.272 262.325 790.884 260.898C789.495 259.47 787.596 258.652 785.604 258.624C783.613 258.597 781.692 259.361 780.264 260.75ZM780.264 344.825L618.825 506.264C618.134 506.949 617.585 507.765 617.211 508.664C616.836 509.562 616.643 510.526 616.643 511.5C616.643 512.474 616.836 513.438 617.211 514.336C617.585 515.235 618.134 516.051 618.825 516.736C619.511 517.428 620.326 517.976 621.225 518.351C622.124 518.725 623.088 518.918 624.061 518.918C625.035 518.918 625.999 518.725 626.897 518.351C627.796 517.976 628.612 517.428 629.297 516.736L790.736 355.298C792.125 353.909 792.905 352.025 792.905 350.061C792.905 348.097 792.125 346.214 790.736 344.825C789.347 343.436 787.464 342.656 785.5 342.656C783.536 342.656 781.652 343.436 780.264 344.825ZM780.264 428.753L702.752 506.264C702.061 506.949 701.513 507.765 701.138 508.664C700.764 509.562 700.571 510.526 700.571 511.5C700.571 512.474 700.764 513.438 701.138 514.336C701.513 515.235 702.061 516.051 702.752 516.736C703.438 517.428 704.254 517.976 705.152 518.351C706.051 518.725 707.015 518.918 707.989 518.918C708.962 518.918 709.926 518.725 710.825 518.351C711.724 517.976 712.539 517.428 713.225 516.736L790.736 439.225C792.125 437.836 792.905 435.953 792.905 433.989C792.905 432.025 792.125 430.141 790.736 428.753C789.347 427.364 787.464 426.584 785.5 426.584C783.536 426.584 781.652 427.364 780.264 428.753Z" fill="white" fill-opacity="0.64"/>
<path d="M599.459 360V274.182H656.28V289.141H617.603V309.59H652.509V324.55H617.603V360H599.459ZM683.336 361.215C679.229 361.215 675.57 360.503 672.357 359.078C669.145 357.625 666.603 355.488 664.731 352.667C662.887 349.817 661.965 346.27 661.965 342.023C661.965 338.448 662.622 335.445 663.935 333.014C665.248 330.584 667.036 328.628 669.298 327.148C671.561 325.667 674.131 324.55 677.009 323.795C679.914 323.041 682.959 322.51 686.144 322.203C689.887 321.812 692.904 321.449 695.195 321.114C697.485 320.75 699.148 320.22 700.181 319.521C701.215 318.823 701.732 317.789 701.732 316.42V316.169C701.732 313.515 700.894 311.462 699.217 310.009C697.569 308.557 695.223 307.83 692.178 307.83C688.965 307.83 686.409 308.543 684.509 309.967C682.61 311.364 681.353 313.124 680.738 315.247L664.228 313.906C665.066 309.995 666.714 306.615 669.173 303.766C671.631 300.888 674.802 298.681 678.685 297.145C682.596 295.58 687.121 294.798 692.261 294.798C695.837 294.798 699.259 295.217 702.528 296.055C705.824 296.893 708.743 298.192 711.286 299.952C713.856 301.712 715.881 303.975 717.362 306.741C718.842 309.478 719.582 312.761 719.582 316.588V360H702.653V351.075H702.151C701.117 353.086 699.734 354.86 698.002 356.396C696.27 357.905 694.189 359.092 691.759 359.958C689.328 360.796 686.521 361.215 683.336 361.215ZM688.448 348.896C691.074 348.896 693.393 348.379 695.404 347.345C697.416 346.284 698.994 344.859 700.139 343.071C701.285 341.283 701.857 339.258 701.857 336.995V330.165C701.299 330.528 700.53 330.863 699.553 331.17C698.603 331.45 697.527 331.715 696.326 331.967C695.125 332.19 693.924 332.4 692.722 332.595C691.521 332.763 690.432 332.916 689.454 333.056C687.359 333.363 685.529 333.852 683.965 334.523C682.4 335.193 681.185 336.101 680.319 337.246C679.453 338.364 679.02 339.761 679.02 341.437C679.02 343.867 679.9 345.725 681.66 347.01C683.448 348.267 685.711 348.896 688.448 348.896ZM784.624 313.99L768.282 314.996C768.002 313.599 767.402 312.342 766.48 311.224C765.558 310.079 764.343 309.171 762.834 308.501C761.354 307.802 759.58 307.453 757.513 307.453C754.747 307.453 752.414 308.04 750.515 309.213C748.615 310.358 747.665 311.895 747.665 313.822C747.665 315.359 748.28 316.658 749.509 317.719C750.738 318.781 752.847 319.633 755.836 320.276L767.486 322.622C773.743 323.907 778.408 325.974 781.481 328.824C784.554 331.673 786.091 335.417 786.091 340.054C786.091 344.272 784.848 347.974 782.361 351.158C779.903 354.343 776.523 356.829 772.221 358.617C767.947 360.377 763.016 361.257 757.429 361.257C748.908 361.257 742.12 359.483 737.064 355.935C732.035 352.36 729.088 347.499 728.222 341.353L745.78 340.431C746.31 343.029 747.595 345.013 749.635 346.381C751.674 347.722 754.286 348.393 757.471 348.393C760.599 348.393 763.114 347.792 765.013 346.591C766.941 345.362 767.919 343.783 767.947 341.856C767.919 340.236 767.234 338.909 765.893 337.875C764.552 336.813 762.485 336.003 759.692 335.445L748.545 333.224C742.26 331.967 737.581 329.788 734.508 326.687C731.463 323.586 729.94 319.633 729.94 314.828C729.94 310.694 731.058 307.132 733.292 304.143C735.555 301.154 738.726 298.849 742.805 297.229C746.911 295.608 751.716 294.798 757.219 294.798C765.349 294.798 771.746 296.516 776.411 299.952C781.104 303.388 783.842 308.068 784.624 313.99ZM829.206 295.636V309.045H790.446V295.636H829.206ZM799.245 280.216H817.096V340.222C817.096 341.87 817.348 343.155 817.851 344.077C818.353 344.971 819.052 345.599 819.946 345.962C820.868 346.326 821.929 346.507 823.13 346.507C823.968 346.507 824.807 346.437 825.645 346.298C826.483 346.13 827.125 346.004 827.572 345.92L830.38 359.204C829.486 359.483 828.229 359.804 826.608 360.168C824.988 360.559 823.019 360.796 820.7 360.88C816.398 361.048 812.627 360.475 809.386 359.162C806.173 357.849 803.673 355.81 801.885 353.044C800.097 350.278 799.218 346.786 799.245 342.568V280.216ZM618.776 478L594.221 392.182H614.041L628.246 451.81H628.959L644.631 392.182H661.602L677.232 451.936H677.986L692.191 392.182H712.011L687.456 478H669.773L653.43 421.891H652.76L636.46 478H618.776ZM741.194 479.257C734.685 479.257 729.056 477.874 724.307 475.109C719.586 472.315 715.94 468.432 713.37 463.46C710.8 458.459 709.515 452.662 709.515 446.07C709.515 439.421 710.8 433.61 713.37 428.638C715.94 423.637 719.586 419.754 724.307 416.989C729.056 414.195 734.685 412.798 741.194 412.798C747.703 412.798 753.318 414.195 758.039 416.989C762.788 419.754 766.448 423.637 769.018 428.638C771.588 433.61 772.873 439.421 772.873 446.07C772.873 452.662 771.588 458.459 769.018 463.46C766.448 468.432 762.788 472.315 758.039 475.109C753.318 477.874 747.703 479.257 741.194 479.257ZM741.278 465.429C744.239 465.429 746.711 464.591 748.695 462.915C750.678 461.211 752.173 458.892 753.179 455.959C754.212 453.026 754.729 449.687 754.729 445.944C754.729 442.201 754.212 438.862 753.179 435.929C752.173 432.996 750.678 430.677 748.695 428.973C746.711 427.269 744.239 426.417 741.278 426.417C738.289 426.417 735.775 427.269 733.735 428.973C731.724 430.677 730.201 432.996 729.168 435.929C728.162 438.862 727.659 442.201 727.659 445.944C727.659 449.687 728.162 453.026 729.168 455.959C730.201 458.892 731.724 461.211 733.735 462.915C735.775 464.591 738.289 465.429 741.278 465.429ZM782.12 478V413.636H799.426V424.866H800.097C801.27 420.872 803.24 417.855 806.005 415.815C808.771 413.748 811.956 412.714 815.559 412.714C816.453 412.714 817.417 412.77 818.451 412.882C819.484 412.994 820.392 413.147 821.174 413.343V429.183C820.336 428.931 819.177 428.708 817.696 428.512C816.216 428.317 814.861 428.219 813.632 428.219C811.006 428.219 808.659 428.791 806.592 429.937C804.553 431.054 802.932 432.619 801.731 434.63C800.558 436.641 799.971 438.96 799.971 441.586V478H782.12ZM844.218 459.479L844.26 438.066H846.858L867.475 413.636H887.965L860.267 445.986H856.035L844.218 459.479ZM828.044 478V392.182H845.894V478H828.044ZM868.271 478L849.331 449.967L861.231 437.354L889.181 478H868.271ZM928.975 413.636V427.045H889.251V413.636H928.975ZM898.344 478V408.985C898.344 404.32 899.252 400.451 901.068 397.378C902.912 394.305 905.426 392 908.61 390.464C911.795 388.927 915.413 388.159 919.463 388.159C922.201 388.159 924.701 388.369 926.964 388.788C929.255 389.207 930.959 389.584 932.076 389.919L928.892 403.328C928.193 403.105 927.327 402.895 926.294 402.7C925.288 402.504 924.254 402.406 923.193 402.406C920.567 402.406 918.737 403.021 917.703 404.25C916.67 405.451 916.153 407.141 916.153 409.32V478H898.344ZM955.372 392.182V478H937.521V392.182H955.372ZM996.392 479.257C989.883 479.257 984.254 477.874 979.505 475.109C974.784 472.315 971.138 468.432 968.568 463.46C965.998 458.459 964.713 452.662 964.713 446.07C964.713 439.421 965.998 433.61 968.568 428.638C971.138 423.637 974.784 419.754 979.505 416.989C984.254 414.195 989.883 412.798 996.392 412.798C1002.9 412.798 1008.52 414.195 1013.24 416.989C1017.99 419.754 1021.65 423.637 1024.22 428.638C1026.79 433.61 1028.07 439.421 1028.07 446.07C1028.07 452.662 1026.79 458.459 1024.22 463.46C1021.65 468.432 1017.99 472.315 1013.24 475.109C1008.52 477.874 1002.9 479.257 996.392 479.257ZM996.476 465.429C999.437 465.429 1001.91 464.591 1003.89 462.915C1005.88 461.211 1007.37 458.892 1008.38 455.959C1009.41 453.026 1009.93 449.687 1009.93 445.944C1009.93 442.201 1009.41 438.862 1008.38 435.929C1007.37 432.996 1005.88 430.677 1003.89 428.973C1001.91 427.269 999.437 426.417 996.476 426.417C993.487 426.417 990.973 427.269 988.933 428.973C986.922 430.677 985.4 432.996 984.366 435.929C983.36 438.862 982.857 442.201 982.857 445.944C982.857 449.687 983.36 453.026 984.366 455.959C985.4 458.892 986.922 461.211 988.933 462.915C990.973 464.591 993.487 465.429 996.476 465.429ZM1048.4 478L1030.89 413.636H1048.95L1058.92 456.881H1059.51L1069.9 413.636H1087.62L1098.18 456.629H1098.73L1108.53 413.636H1126.55L1109.08 478H1090.18L1079.12 437.521H1078.32L1067.26 478H1048.4Z" fill="black"/>
<path fill-rule="evenodd" clip-rule="evenodd" d="M516 218.5V132L343 132V218.466C342.981 170.709 304.261 132 256.5 132H170V305H256.5C208.727 305 170 343.728 170 391.5L170 478H343V391.5C343 439.272 381.728 478 429.5 478H516V305H429.535C477.291 304.981 516 266.261 516 218.5Z" fill="black"/>
<defs>
<clipPath id="clip0_613_16">
<rect width="200" height="200" fill="white" transform="translate(936 120)"/>
</clipPath>
</defs>
</svg>
