<svg xmlns="http://www.w3.org/2000/svg" width="1187" height="541" fill="none" viewBox="0 0 1187 541"><rect width="1187" height="541" fill="#E2F24B" rx="64"/><path fill="#000" d="M138.537 271V260.231L181.362 200.141H138.453V185.182H204.158V195.951L161.29 256.04H204.241V271H138.537ZM244.801 272.257C238.18 272.257 232.481 270.916 227.704 268.234C222.955 265.525 219.296 261.697 216.726 256.753C214.156 251.78 212.871 245.9 212.871 239.112C212.871 232.491 214.156 226.68 216.726 221.68C219.296 216.679 222.913 212.782 227.579 209.989C232.272 207.195 237.775 205.798 244.089 205.798C248.335 205.798 252.288 206.483 255.947 207.852C259.635 209.192 262.847 211.218 265.585 213.928C268.351 216.637 270.502 220.045 272.038 224.152C273.575 228.231 274.343 233.008 274.343 238.483V243.386H219.994V232.323H257.54C257.54 229.753 256.981 227.476 255.864 225.493C254.746 223.509 253.196 221.959 251.212 220.842C249.257 219.696 246.98 219.124 244.382 219.124C241.672 219.124 239.27 219.752 237.175 221.009C235.107 222.238 233.487 223.901 232.314 225.996C231.141 228.063 230.54 230.368 230.512 232.91V243.428C230.512 246.612 231.099 249.364 232.272 251.683C233.473 254.001 235.163 255.789 237.342 257.046C239.521 258.303 242.105 258.932 245.094 258.932C247.078 258.932 248.894 258.652 250.542 258.094C252.19 257.535 253.601 256.697 254.774 255.58C255.947 254.462 256.841 253.093 257.456 251.473L273.966 252.562C273.128 256.529 271.41 259.993 268.812 262.955C266.242 265.888 262.917 268.179 258.839 269.827C254.788 271.447 250.109 272.257 244.801 272.257ZM301.483 233.79V271H283.632V206.636H300.645V217.992H301.399C302.824 214.249 305.212 211.288 308.565 209.109C311.917 206.902 315.982 205.798 320.759 205.798C325.228 205.798 329.125 206.776 332.45 208.732C335.774 210.687 338.358 213.481 340.202 217.112C342.045 220.716 342.967 225.018 342.967 230.018V271H325.116V233.203C325.144 229.264 324.139 226.191 322.099 223.984C320.06 221.75 317.253 220.632 313.677 220.632C311.274 220.632 309.151 221.149 307.308 222.183C305.492 223.216 304.067 224.725 303.033 226.708C302.028 228.664 301.511 231.024 301.483 233.79ZM383.757 272.257C377.165 272.257 371.494 270.86 366.745 268.067C362.023 265.245 358.392 261.334 355.85 256.334C353.335 251.333 352.078 245.579 352.078 239.07C352.078 232.477 353.349 226.694 355.892 221.722C358.462 216.721 362.107 212.824 366.828 210.031C371.549 207.209 377.165 205.798 383.674 205.798C389.289 205.798 394.205 206.818 398.424 208.857C402.642 210.897 405.98 213.76 408.438 217.447C410.897 221.135 412.252 225.465 412.503 230.438H395.658C395.183 227.225 393.926 224.641 391.887 222.685C389.875 220.702 387.235 219.71 383.967 219.71C381.201 219.71 378.785 220.464 376.718 221.973C374.678 223.454 373.086 225.619 371.941 228.468C370.795 231.317 370.223 234.768 370.223 238.818C370.223 242.925 370.781 246.417 371.899 249.294C373.044 252.171 374.65 254.364 376.718 255.873C378.785 257.381 381.201 258.136 383.967 258.136C386.006 258.136 387.836 257.717 389.456 256.879C391.104 256.04 392.459 254.825 393.521 253.233C394.61 251.613 395.323 249.671 395.658 247.408H412.503C412.224 252.325 410.883 256.655 408.48 260.398C406.106 264.114 402.823 267.019 398.633 269.114C394.443 271.21 389.484 272.257 383.757 272.257ZM432.593 295.136C430.33 295.136 428.207 294.955 426.224 294.592C424.268 294.256 422.648 293.823 421.363 293.293L425.385 279.967C427.481 280.61 429.366 280.959 431.042 281.015C432.746 281.071 434.213 280.68 435.442 279.842C436.699 279.004 437.719 277.579 438.501 275.567L439.549 272.844L416.46 206.636H435.233L448.558 253.903H449.228L462.679 206.636H481.578L456.562 277.956C455.36 281.42 453.726 284.437 451.659 287.007C449.62 289.605 447.036 291.603 443.907 292.999C440.778 294.424 437.007 295.136 432.593 295.136ZM509.682 185.182L508.047 245.271H492.711L491.035 185.182H509.682ZM500.379 272.089C497.614 272.089 495.239 271.112 493.256 269.156C491.272 267.173 490.294 264.798 490.322 262.033C490.294 259.295 491.272 256.948 493.256 254.993C495.239 253.037 497.614 252.06 500.379 252.06C503.033 252.06 505.366 253.037 507.377 254.993C509.388 256.948 510.408 259.295 510.436 262.033C510.408 263.876 509.919 265.567 508.969 267.103C508.047 268.612 506.832 269.827 505.324 270.749C503.815 271.643 502.167 272.089 500.379 272.089ZM154.251 389H134.808L164.433 303.182H187.815L217.399 389H197.956L176.46 322.793H175.789L154.251 389ZM153.036 355.268H198.962V369.431H153.036V355.268ZM266.308 361.595V324.636H284.159V389H267.02V377.309H266.35C264.897 381.08 262.481 384.111 259.101 386.402C255.748 388.693 251.656 389.838 246.823 389.838C242.521 389.838 238.736 388.86 235.467 386.905C232.199 384.949 229.642 382.17 227.799 378.566C225.983 374.962 225.061 370.646 225.033 365.618V324.636H242.884V362.433C242.912 366.232 243.932 369.236 245.943 371.442C247.954 373.649 250.65 374.753 254.03 374.753C256.181 374.753 258.193 374.264 260.064 373.286C261.936 372.281 263.445 370.8 264.59 368.844C265.763 366.889 266.336 364.473 266.308 361.595ZM330.312 324.636V338.045H291.552V324.636H330.312ZM300.352 309.216H318.202V369.222C318.202 370.87 318.454 372.155 318.957 373.077C319.46 373.971 320.158 374.599 321.052 374.962C321.974 375.326 323.035 375.507 324.236 375.507C325.075 375.507 325.913 375.437 326.751 375.298C327.589 375.13 328.231 375.004 328.678 374.92L331.486 388.204C330.592 388.483 329.335 388.804 327.714 389.168C326.094 389.559 324.125 389.796 321.806 389.88C317.504 390.048 313.733 389.475 310.492 388.162C307.28 386.849 304.779 384.81 302.991 382.044C301.204 379.278 300.324 375.786 300.352 371.568V309.216ZM367.97 390.257C361.461 390.257 355.832 388.874 351.083 386.109C346.362 383.315 342.716 379.432 340.146 374.46C337.576 369.459 336.291 363.662 336.291 357.07C336.291 350.421 337.576 344.61 340.146 339.638C342.716 334.637 346.362 330.754 351.083 327.989C355.832 325.195 361.461 323.798 367.97 323.798C374.479 323.798 380.094 325.195 384.815 327.989C389.564 330.754 393.224 334.637 395.794 339.638C398.364 344.61 399.649 350.421 399.649 357.07C399.649 363.662 398.364 369.459 395.794 374.46C393.224 379.432 389.564 383.315 384.815 386.109C380.094 388.874 374.479 390.257 367.97 390.257ZM368.054 376.429C371.015 376.429 373.488 375.591 375.471 373.915C377.454 372.211 378.949 369.892 379.955 366.959C380.988 364.026 381.505 360.687 381.505 356.944C381.505 353.201 380.988 349.862 379.955 346.929C378.949 343.996 377.454 341.677 375.471 339.973C373.488 338.269 371.015 337.417 368.054 337.417C365.065 337.417 362.551 338.269 360.511 339.973C358.5 341.677 356.978 343.996 355.944 346.929C354.938 349.862 354.435 353.201 354.435 356.944C354.435 360.687 354.938 364.026 355.944 366.959C356.978 369.892 358.5 372.211 360.511 373.915C362.551 375.591 365.065 376.429 368.054 376.429ZM408.896 389V324.636H425.909V335.992H426.664C428.004 332.221 430.239 329.246 433.368 327.067C436.497 324.888 440.24 323.798 444.598 323.798C449.012 323.798 452.769 324.902 455.87 327.109C458.971 329.288 461.038 332.249 462.072 335.992H462.742C464.055 332.305 466.43 329.357 469.866 327.151C473.33 324.916 477.423 323.798 482.144 323.798C488.15 323.798 493.025 325.712 496.768 329.539C500.539 333.338 502.425 338.73 502.425 345.714V389H484.616V349.234C484.616 345.658 483.666 342.976 481.766 341.188C479.867 339.4 477.492 338.506 474.643 338.506C471.402 338.506 468.874 339.54 467.058 341.607C465.243 343.647 464.335 346.342 464.335 349.695V389H447.029V348.857C447.029 345.7 446.121 343.186 444.305 341.314C442.517 339.442 440.156 338.506 437.223 338.506C435.24 338.506 433.452 339.009 431.86 340.015C430.295 340.993 429.052 342.375 428.13 344.163C427.208 345.923 426.747 347.991 426.747 350.365V389H408.896ZM532.519 390.215C528.413 390.215 524.753 389.503 521.54 388.078C518.328 386.625 515.786 384.488 513.914 381.667C512.07 378.817 511.148 375.27 511.148 371.023C511.148 367.448 511.805 364.445 513.118 362.014C514.431 359.584 516.219 357.628 518.481 356.148C520.744 354.667 523.314 353.55 526.192 352.795C529.097 352.041 532.142 351.51 535.327 351.203C539.07 350.812 542.087 350.449 544.378 350.114C546.668 349.75 548.331 349.22 549.364 348.521C550.398 347.823 550.915 346.789 550.915 345.42V345.169C550.915 342.515 550.077 340.462 548.4 339.009C546.752 337.557 544.406 336.83 541.361 336.83C538.148 336.83 535.592 337.543 533.692 338.967C531.793 340.364 530.536 342.124 529.921 344.247L513.411 342.906C514.249 338.995 515.897 335.615 518.356 332.766C520.814 329.888 523.985 327.681 527.868 326.145C531.779 324.58 536.304 323.798 541.445 323.798C545.02 323.798 548.442 324.217 551.711 325.055C555.007 325.893 557.927 327.192 560.469 328.952C563.039 330.712 565.064 332.975 566.545 335.741C568.025 338.478 568.766 341.761 568.766 345.588V389H551.837V380.075H551.334C550.3 382.086 548.917 383.86 547.185 385.396C545.453 386.905 543.372 388.092 540.942 388.958C538.511 389.796 535.704 390.215 532.519 390.215ZM537.631 377.896C540.257 377.896 542.576 377.379 544.587 376.345C546.599 375.284 548.177 373.859 549.322 372.071C550.468 370.283 551.04 368.258 551.04 365.995V359.165C550.482 359.528 549.713 359.863 548.736 360.17C547.786 360.45 546.71 360.715 545.509 360.967C544.308 361.19 543.107 361.4 541.905 361.595C540.704 361.763 539.615 361.916 538.637 362.056C536.542 362.363 534.712 362.852 533.148 363.523C531.583 364.193 530.368 365.101 529.502 366.246C528.636 367.364 528.203 368.761 528.203 370.437C528.203 372.867 529.083 374.725 530.843 376.01C532.631 377.267 534.894 377.896 537.631 377.896ZM614.49 324.636V338.045H575.729V324.636H614.49ZM584.529 309.216H602.38V369.222C602.38 370.87 602.631 372.155 603.134 373.077C603.637 373.971 604.335 374.599 605.229 374.962C606.151 375.326 607.212 375.507 608.414 375.507C609.252 375.507 610.09 375.437 610.928 375.298C611.766 375.13 612.408 375.004 612.855 374.92L615.663 388.204C614.769 388.483 613.512 388.804 611.892 389.168C610.271 389.559 608.302 389.796 605.983 389.88C601.681 390.048 597.91 389.475 594.669 388.162C591.457 386.849 588.957 384.81 587.169 382.044C585.381 379.278 584.501 375.786 584.529 371.568V309.216ZM652.399 390.257C645.778 390.257 640.079 388.916 635.302 386.234C630.553 383.525 626.894 379.697 624.324 374.753C621.754 369.78 620.468 363.9 620.468 357.112C620.468 350.491 621.754 344.68 624.324 339.68C626.894 334.679 630.511 330.782 635.177 327.989C639.87 325.195 645.373 323.798 651.687 323.798C655.933 323.798 659.886 324.483 663.545 325.852C667.233 327.192 670.445 329.218 673.183 331.928C675.949 334.637 678.1 338.045 679.636 342.152C681.173 346.231 681.941 351.008 681.941 356.483V361.386H627.592V350.323H665.138C665.138 347.753 664.579 345.476 663.461 343.493C662.344 341.509 660.794 339.959 658.81 338.842C656.855 337.696 654.578 337.124 651.98 337.124C649.27 337.124 646.868 337.752 644.772 339.009C642.705 340.238 641.085 341.901 639.912 343.996C638.738 346.063 638.138 348.368 638.11 350.91V361.428C638.11 364.612 638.696 367.364 639.87 369.683C641.071 372.001 642.761 373.789 644.94 375.046C647.119 376.303 649.703 376.932 652.692 376.932C654.676 376.932 656.491 376.652 658.14 376.094C659.788 375.535 661.199 374.697 662.372 373.58C663.545 372.462 664.439 371.093 665.054 369.473L681.564 370.562C680.726 374.529 679.008 377.993 676.41 380.955C673.839 383.888 670.515 386.179 666.437 387.827C662.386 389.447 657.707 390.257 652.399 390.257Z"/><path fill="#fff" d="M1028.44 428.438C993.023 463.853 935.603 463.853 900.188 428.438L870.5 398.75L840.812 428.438C805.397 463.854 747.977 463.854 712.562 428.438C677.146 393.023 677.146 335.603 712.562 300.188L742.25 270.5L712.562 240.812C677.147 205.397 677.147 147.977 712.562 112.562C747.978 77.1461 805.398 77.1461 840.813 112.562L870.5 142.249L900.187 112.562C935.603 77.1467 993.022 77.1467 1028.44 112.562C1063.85 147.978 1063.85 205.397 1028.44 240.813L998.751 270.5L1028.44 300.187C1063.85 335.603 1063.85 393.022 1028.44 428.438Z"/><g clip-path="url(#clip0_609_39)"><mask id="mask0_609_39" style="mask-type:luminance" width="200" height="200" x="911" y="81" maskUnits="userSpaceOnUse"><path fill="#fff" d="M1111 81H911V281H1111V81Z"/></mask><g mask="url(#mask0_609_39)"><path fill="#000" d="M1011 281C1008.1 186.262 1005.74 183.91 911 181C1005.74 178.105 1008.09 175.738 1011 81C1013.89 175.738 1016.26 178.09 1111 181C1016.26 183.91 1013.91 186.233 1011 281Z"/></g></g><defs><clipPath id="clip0_609_39"><rect width="200" height="200" fill="#fff" transform="translate(911 81)"/></clipPath></defs></svg>